<?xml version="1.0" encoding="UTF-8"?><svg id="Layer_1" xmlns="http://www.w3.org/2000/svg" width="335" height="338.5" viewBox="0 0 335 338.5"><defs><style>.cls-1{fill:#a4947b;stroke:#ded8cb;stroke-miterlimit:10;stroke-width:2.5px;}.cls-2{fill:#a4947a;}.cls-3{fill:#ded8cb;}</style></defs><rect class="cls-3" width="335" height="338.5"/><g><path class="cls-1" d="M211.43,208.6l-41.65,4.5-41.65-4.5c-.72,2.88-.07,6.21,.5,8.27,.33,1.19,1.23,2.15,2.41,2.5,16.5,4.98,36.13,4.13,38.74,3.99,2.61,.14,22.24,1,38.74-3.99,1.18-.36,2.08-1.31,2.41-2.5,.57-2.05,1.22-5.39,.5-8.27Z"/><path class="cls-1" d="M234.1,177.99c-1.13-11.34-3.4-18.14-15.87-24.95l-47.32,11.27-47.32-11.27c-12.47,6.8-14.74,13.61-15.87,24.95-1.13,11.34,11.34,24.95,21.54,30.61,9.64,5.35,38.46,4.64,41.65,4.55,3.19,.1,32.02,.81,41.65-4.55,10.2-5.67,22.68-19.28,21.54-30.61Z"/><path class="cls-1" d="M205.76,116.76l-35.98,5.62-35.98-5.62c-14.74,6.8-11.34,27.21-11.34,36.28,0,8.47,27.21,11.31,47.32,11.32,19.58,.02,47.32-2.85,47.32-11.32,0-9.07,3.4-29.48-11.34-36.28Z"/><path class="cls-1" d="M169.77,109.92l-35.98-4.5v11.34c0,5.24,31.03,5.64,35.68,5.67h0s.12,0,.3,0c.18,0,.3,0,.3,0h0c4.66-.03,35.68-.43,35.68-5.67v-11.34l-35.98,4.5Z"/><path class="cls-1" d="M170.07,100.89h0c-.1,0-.2,0-.3,0-.1,0-.2,0-.3,0h0c-40.16,.05-35.68,4.54-35.68,4.54,3.13,4.18,31.26,4.51,35.68,4.53h0s.11,0,.3,0c.19,0,.3,0,.3,0h0c4.42-.03,32.55-.36,35.68-4.54,0,0,4.48-4.49-35.68-4.53Z"/></g><g><path class="cls-1" d="M116.46,282.95s13.61-14.74,9.07-28.35c-4.54-13.61-26.08-52.16-28.35-57.83-2.27-5.67,2.27-47.62,3.4-48.76,1.13-1.13,7.94,2.27,7.94,7.94s1.13,24.95,3.4,34.02c2.27,9.07,22.68,31.75,24.95,31.75s6.8-1.13-11.34-22.68c0,0-4.66-10.54,1.13-12.47,3.4-1.13,33.93,29.49,35.15,45.36,1.13,14.74-7.94,66.9-7.94,66.9,0,0-28.35-4.54-37.42-15.87Z"/><path class="cls-1" d="M225.66,282.95s-13.61-14.74-9.07-28.35c4.54-13.61,26.08-52.16,28.35-57.83,2.27-5.67-2.27-47.62-3.4-48.76-1.13-1.13-7.94,2.27-7.94,7.94s-1.13,24.95-3.4,34.02c-2.27,9.07-22.68,31.75-24.95,31.75s-6.8-1.13,11.34-22.68c0,0,4.66-10.54-1.13-12.47-3.4-1.13-33.93,29.49-35.15,45.36-1.13,14.74,7.94,66.9,7.94,66.9,0,0,28.35-4.54,37.42-15.87Z"/></g><path class="cls-1" d="M188.84,143.72c-10.29-3.09-18,10.29-18,10.29,0,0-7.71-13.37-18-10.29-10.29,3.09-11.31,12.34-9.77,18.51,1.54,6.17,5.66,17.49,27.77,33.43,22.11-15.94,26.23-27.26,27.77-33.43,1.54-6.17,.51-15.43-9.77-18.51Z"/><g><path class="cls-2" d="M50.95,196.77c.91,0,1.77,.15,2.56,.45,.79,.3,1.52,.71,2.17,1.24,.65,.52,1.23,1.13,1.74,1.83,.51,.7,.94,1.45,1.28,2.25,.34,.8,.6,1.63,.77,2.48,.17,.85,.26,1.69,.26,2.52v19.02H27.39v-17.38c0-.76,.06-1.56,.17-2.4,.11-.84,.29-1.66,.53-2.46,.24-.8,.55-1.56,.94-2.29,.39-.73,.86-1.36,1.43-1.91s1.21-.98,1.94-1.3c.73-.32,1.57-.48,2.52-.48s1.71,.18,2.45,.54c.73,.36,1.39,.84,1.97,1.45,.58,.61,1.09,1.3,1.53,2.09,.44,.79,.83,1.61,1.16,2.48,.3-1.09,.7-2.13,1.19-3.11s1.1-1.84,1.82-2.58,1.57-1.33,2.55-1.76c.98-.43,2.11-.65,3.38-.65Zm-15.25,10.6c-1.83,0-3.16,.48-4,1.45-.84,.97-1.26,2.34-1.26,4.12v4.69h10.49v-3.93c0-.81-.1-1.59-.3-2.36s-.52-1.44-.94-2.03-.97-1.06-1.63-1.42c-.66-.35-1.44-.53-2.36-.53Zm14.69-1.57c-.88,0-1.71,.11-2.48,.34-.77,.22-1.44,.57-2,1.03-.56,.46-1,1.04-1.33,1.74-.32,.7-.48,1.52-.48,2.46v6.27h12.49v-5.48c0-.91-.15-1.76-.45-2.54-.3-.78-.72-1.45-1.26-2.02-.54-.57-1.19-1.01-1.95-1.33s-1.61-.47-2.54-.47Z"/><path class="cls-2" d="M33.79,167.96l22.82,9.43c2.61,1.08,5.18,2.28,7.74,3.6,2.55,1.33,5,2.76,7.36,4.3l-1.8,2.96c-.67-.37-1.45-.82-2.34-1.33-.88-.51-1.8-1.01-2.74-1.5s-1.88-.95-2.8-1.37-1.76-.74-2.53-.97l-25.72,11.34v-7.59l17.54-7.7-17.54-5.93v-5.26Z"/><path class="cls-2" d="M62.87,142.65l-2.64,8.52-30.9-9.56,2.64-8.52,13.5,4.18,3.49-11.29-13.5-4.17,2.64-8.52,30.9,9.56-2.64,8.52-13.48-4.17-3.49,11.29,13.48,4.17Z"/><path class="cls-2" d="M86.34,96.56l-4.29,6.27-2.56-1.75c.51,1.43,.65,2.84,.42,4.22-.23,1.38-.77,2.69-1.62,3.94-1.12,1.63-2.4,2.89-3.86,3.78-1.46,.89-3,1.43-4.61,1.63-1.62,.2-3.26,.07-4.94-.39-1.68-.46-3.3-1.22-4.86-2.29-1.56-1.07-2.85-2.3-3.89-3.7-1.04-1.4-1.76-2.89-2.16-4.47-.4-1.58-.45-3.21-.15-4.89,.3-1.68,1.01-3.34,2.12-4.97,.57-.83,1.23-1.53,1.99-2.11,.76-.58,1.58-1.03,2.46-1.34s1.8-.49,2.76-.54c.96-.04,1.92,.07,2.89,.33l-2.75-5.96,1.65-2.41,21.41,14.64Zm-15.06-1.05c-.56-.38-1.16-.75-1.82-1.12-.66-.37-1.33-.69-2.03-.97-.7-.28-1.41-.48-2.12-.62-.71-.13-1.41-.16-2.1-.07-.68,.08-1.33,.31-1.94,.67-.61,.36-1.16,.9-1.64,1.6-.48,.71-.77,1.4-.88,2.1-.1,.69-.07,1.37,.11,2.03s.45,1.3,.85,1.93,.84,1.21,1.36,1.76c.51,.55,1.06,1.06,1.63,1.54,.57,.47,1.13,.9,1.68,1.27s1.14,.74,1.8,1.11c.66,.37,1.33,.69,2.03,.97,.7,.28,1.41,.49,2.13,.63,.72,.14,1.42,.17,2.1,.09,.68-.08,1.32-.29,1.93-.64,.61-.35,1.15-.87,1.64-1.58,.44-.64,.7-1.3,.77-1.99,.08-.68,.02-1.36-.17-2.05-.19-.68-.48-1.35-.87-1.99s-.83-1.26-1.33-1.83c-.5-.57-1.02-1.1-1.57-1.59-.55-.48-1.07-.89-1.56-1.23Z"/><path class="cls-2" d="M100.96,64.16c1.12,1.35,2.12,2.89,3.01,4.62,.89,1.74,1.62,3.55,2.2,5.44,.58,1.89,.98,3.8,1.19,5.72,.21,1.92,.2,3.73-.03,5.44l-3.18,.63c-.17-.83-.41-1.72-.73-2.67-.32-.94-.7-1.91-1.14-2.9-.44-.99-.93-1.98-1.46-2.98-.53-1-1.08-1.97-1.66-2.9-.57-.93-1.16-1.82-1.75-2.66-.59-.84-1.17-1.6-1.74-2.28-.37-.45-.79-.92-1.25-1.4-.46-.48-.96-.94-1.49-1.36-.54-.42-1.09-.79-1.67-1.11-.58-.32-1.17-.53-1.77-.63-.6-.1-1.21-.08-1.82,.06-.61,.14-1.21,.45-1.8,.94-.58,.48-.98,1.04-1.21,1.67-.23,.63-.35,1.3-.34,2.01,0,.71,.11,1.44,.31,2.18,.2,.75,.46,1.47,.78,2.17,.32,.7,.67,1.35,1.06,1.96,.39,.61,.77,1.13,1.13,1.57l8.32,10-5.85,4.87-16.59-19.94,2.25-1.87,6.54,2.42c-.32-1.04-.5-2.08-.54-3.11-.04-1.04,.05-2.03,.29-2.99,.24-.96,.63-1.86,1.17-2.72,.54-.86,1.24-1.65,2.11-2.37,1.38-1.15,2.77-1.92,4.17-2.33s2.77-.49,4.11-.25,2.64,.76,3.89,1.58c1.25,.82,2.41,1.88,3.5,3.18Z"/><path class="cls-2" d="M137.96,62.97l-2.67,1.18-5.36-3.8c.08,1,0,1.96-.21,2.89-.22,.93-.57,1.8-1.04,2.6-.47,.8-1.06,1.53-1.77,2.17-.71,.64-1.52,1.16-2.44,1.57-1.81,.8-3.57,1.19-5.28,1.17-1.71-.02-3.3-.37-4.78-1.05-1.48-.68-2.81-1.66-4-2.94-1.18-1.28-2.16-2.78-2.92-4.51-.76-1.73-1.21-3.46-1.36-5.2-.14-1.74,.03-3.38,.53-4.92s1.32-2.95,2.46-4.22c1.14-1.27,2.62-2.31,4.43-3.1,1.38-.61,2.77-.9,4.17-.88,1.39,.02,2.75,.42,4.07,1.2l-5.1-11.57,6.95-3.06,14.31,32.48Zm-12.2-8.76c-.24-.55-.55-1.13-.92-1.75-.37-.62-.79-1.23-1.27-1.82-.47-.59-.99-1.14-1.56-1.65-.57-.5-1.17-.91-1.8-1.22-.64-.31-1.29-.49-1.98-.54-.68-.05-1.38,.08-2.1,.4-.78,.34-1.4,.78-1.85,1.32-.45,.54-.78,1.13-.98,1.78-.2,.65-.3,1.35-.3,2.08s.08,1.47,.22,2.21c.14,.74,.34,1.46,.57,2.17,.24,.71,.49,1.36,.75,1.96,.27,.6,.58,1.23,.94,1.88s.76,1.28,1.21,1.88c.45,.6,.94,1.16,1.48,1.67,.54,.51,1.12,.9,1.74,1.2,.62,.29,1.28,.45,1.98,.48,.7,.03,1.44-.13,2.22-.47,.78-.34,1.41-.78,1.87-1.32,.47-.53,.81-1.13,1.02-1.79,.21-.66,.31-1.35,.31-2.08,0-.73-.08-1.46-.22-2.21-.15-.74-.34-1.47-.58-2.19-.24-.71-.5-1.38-.77-1.99Z"/><path class="cls-2" d="M182.4,58.84l-7.59,.06-.03-3.1c-.89,1.24-1.96,2.15-3.22,2.76-1.26,.6-2.65,.91-4.16,.92-1.98,.02-3.75-.32-5.31-1.01-1.56-.69-2.89-1.64-3.98-2.85-1.09-1.21-1.92-2.64-2.51-4.28s-.88-3.41-.9-5.29c-.02-1.89,.25-3.66,.81-5.31,.56-1.65,1.37-3.09,2.44-4.32,1.07-1.23,2.38-2.2,3.93-2.92,1.55-.72,3.32-1.08,5.29-1.1,1,0,1.96,.13,2.87,.43,.91,.29,1.74,.71,2.5,1.25,.76,.54,1.43,1.19,2.02,1.96,.58,.77,1.04,1.62,1.38,2.56l3.32-5.67,2.92-.02,.21,25.94Zm-7.74-12.96c0-.67-.04-1.38-.12-2.13-.07-.75-.2-1.49-.37-2.22-.17-.73-.4-1.43-.7-2.09s-.68-1.25-1.14-1.77-1.01-.92-1.66-1.21c-.65-.29-1.4-.44-2.25-.43-.85,0-1.59,.17-2.22,.48-.63,.31-1.16,.73-1.61,1.25s-.81,1.12-1.1,1.79-.51,1.38-.67,2.12c-.16,.73-.27,1.47-.33,2.21-.06,.74-.09,1.44-.08,2.1,0,.66,.04,1.36,.12,2.11,.07,.75,.2,1.49,.37,2.22,.17,.73,.4,1.43,.7,2.11,.3,.67,.67,1.26,1.13,1.78,.45,.51,1,.92,1.63,1.22s1.37,.45,2.23,.44c.78,0,1.47-.17,2.07-.5,.6-.33,1.13-.76,1.58-1.3,.45-.54,.83-1.16,1.14-1.85s.56-1.41,.75-2.14,.33-1.47,.41-2.19c.08-.73,.12-1.39,.12-1.99Z"/><path class="cls-2" d="M217.33,52.46c-.47,1.69-1.17,3.39-2.1,5.1s-2,3.35-3.23,4.9c-1.23,1.55-2.57,2.96-4.03,4.22-1.46,1.26-2.96,2.28-4.5,3.06l-2.33-2.26c.59-.61,1.19-1.32,1.78-2.11,.6-.8,1.18-1.66,1.74-2.58,.56-.92,1.1-1.89,1.63-2.89,.52-1,1.01-2.01,1.45-3.01,.44-1,.85-1.99,1.2-2.95,.36-.96,.65-1.87,.89-2.72,.16-.56,.31-1.17,.44-1.82,.14-.65,.23-1.32,.27-2,.04-.68,.03-1.35-.03-2-.06-.66-.23-1.26-.48-1.82-.26-.55-.62-1.04-1.08-1.47-.46-.42-1.06-.74-1.8-.95-.72-.2-1.41-.22-2.06-.05-.65,.17-1.27,.45-1.85,.86-.58,.41-1.12,.9-1.62,1.49-.5,.59-.95,1.22-1.34,1.88s-.73,1.32-1.01,1.99-.5,1.28-.65,1.82l-3.51,12.52-7.33-2.06,7.01-24.98,2.81,.79,1.72,6.76c.67-.85,1.43-1.59,2.25-2.21,.83-.62,1.7-1.11,2.62-1.46s1.89-.54,2.91-.58c1.02-.04,2.06,.09,3.14,.39,1.73,.49,3.16,1.19,4.28,2.11,1.13,.92,1.97,2,2.54,3.24,.57,1.24,.87,2.61,.9,4.1s-.18,3.06-.64,4.69Z"/><path class="cls-2" d="M239.26,82.33l-2.48-1.54,.11-6.57c-.78,.63-1.61,1.12-2.5,1.46-.89,.34-1.8,.55-2.73,.62-.93,.07-1.86-.01-2.79-.24s-1.82-.6-2.67-1.13c-1.68-1.04-3-2.27-3.95-3.69-.95-1.42-1.57-2.93-1.84-4.54s-.22-3.26,.17-4.96c.38-1.7,1.07-3.35,2.07-4.96,.99-1.6,2.17-2.96,3.52-4.06,1.35-1.1,2.8-1.88,4.36-2.34,1.56-.46,3.18-.58,4.87-.36,1.69,.22,3.38,.85,5.06,1.9,1.29,.8,2.31,1.78,3.08,2.94,.77,1.16,1.21,2.51,1.31,4.04l6.66-10.75,6.45,4-18.7,30.16Zm.33-15.02c.32-.51,.62-1.09,.93-1.75s.56-1.35,.79-2.08c.22-.73,.38-1.46,.48-2.22,.1-.75,.09-1.48-.01-2.17-.1-.7-.33-1.34-.67-1.94-.35-.59-.85-1.09-1.51-1.5-.73-.45-1.44-.71-2.13-.78s-1.37,0-2.03,.2c-.65,.2-1.28,.51-1.89,.93-.6,.42-1.17,.9-1.69,1.43-.53,.54-1.01,1.1-1.46,1.7-.45,.59-.85,1.17-1.19,1.73-.35,.56-.69,1.17-1.02,1.84-.33,.67-.62,1.35-.87,2.06-.25,.71-.43,1.43-.54,2.17-.11,.73-.11,1.44,0,2.11,.11,.68,.35,1.31,.72,1.9s.92,1.11,1.65,1.56c.73,.45,1.44,.72,2.15,.8s1.39,.03,2.05-.17c.66-.2,1.29-.5,1.89-.92,.6-.41,1.16-.89,1.69-1.43,.53-.54,1.02-1.12,1.47-1.72,.45-.6,.85-1.19,1.21-1.76Z"/><path class="cls-2" d="M258.36,102.72l-5.01-7.38,26.75-18.18,5.01,7.37-11.68,7.94,6.64,9.77,11.68-7.94,5.01,7.38-26.75,18.18-5.01-7.37,11.67-7.93-6.64-9.77-11.67,7.93Z"/><path class="cls-2" d="M296.18,143.37c-1.01,.32-1.97,.45-2.86,.37s-1.73-.3-2.51-.67c-.78-.37-1.49-.86-2.15-1.47s-1.24-1.29-1.77-2.05c-.53-.76-1-1.56-1.4-2.42-.4-.85-.73-1.7-1-2.54-.34-1.07-.6-2.15-.79-3.24-.18-1.09-.27-2.19-.27-3.31-.89,.46-1.71,.99-2.45,1.61s-1.33,1.31-1.79,2.08c-.45,.77-.73,1.64-.83,2.59-.1,.95,.03,2,.39,3.14,.24,.76,.59,1.44,1.03,2.05,.45,.61,.97,1.14,1.56,1.58,.6,.44,1.25,.78,1.96,1.04s1.46,.4,2.24,.45l-.16,3.49c-1.28-.11-2.46-.45-3.54-1-1.08-.56-2.06-1.27-2.92-2.13s-1.61-1.83-2.24-2.92c-.63-1.08-1.12-2.19-1.49-3.33-.6-1.88-.84-3.72-.72-5.53,.12-1.8,.57-3.46,1.34-4.98,.77-1.52,1.84-2.86,3.22-4.02,1.37-1.16,3-2.04,4.88-2.65,1.88-.6,3.72-.83,5.51-.68,1.79,.15,3.44,.62,4.95,1.41,1.51,.79,2.84,1.88,3.98,3.28,1.15,1.39,2.02,3.03,2.62,4.92,.29,.91,.53,1.87,.7,2.86,.18,1,.27,1.99,.28,2.98,0,.99-.08,1.95-.27,2.89-.19,.94-.51,1.81-.97,2.61-.46,.8-1.06,1.51-1.81,2.13s-1.67,1.11-2.76,1.46Zm-10.57-16.26c.08,.95,.21,1.88,.38,2.8,.17,.92,.4,1.83,.68,2.73,.3,.94,.67,1.79,1.1,2.54,.44,.75,.96,1.35,1.57,1.81,.61,.46,1.32,.75,2.13,.87,.81,.12,1.73,.01,2.77-.32,.84-.27,1.57-.63,2.2-1.08,.63-.45,1.12-.98,1.47-1.59,.36-.61,.57-1.29,.64-2.03s-.04-1.55-.31-2.42c-.26-.81-.64-1.5-1.15-2.05-.51-.55-1.09-1-1.76-1.33-.66-.33-1.39-.56-2.17-.7-.78-.14-1.57-.2-2.37-.2-.8,0-1.59,.08-2.36,.21-.77,.14-1.49,.31-2.14,.52-.11,.04-.23,.07-.34,.11-.11,.04-.23,.08-.34,.13Z"/><path class="cls-2" d="M281.12,178.64l-.26-7.59,3.1-.11c-1.26-.86-2.21-1.91-2.84-3.15-.64-1.24-.98-2.62-1.03-4.13-.07-1.98,.22-3.75,.87-5.33,.65-1.58,1.56-2.93,2.75-4.05,1.18-1.12,2.59-1.99,4.21-2.62,1.63-.63,3.38-.97,5.27-1.04,1.89-.07,3.66,.16,5.33,.67s3.13,1.29,4.38,2.32c1.26,1.04,2.26,2.32,3.02,3.85,.76,1.53,1.17,3.29,1.24,5.26,.03,1-.08,1.96-.35,2.88s-.66,1.76-1.18,2.54c-.52,.77-1.16,1.46-1.91,2.07-.75,.6-1.59,1.08-2.52,1.45l5.75,3.17,.1,2.92-25.93,.9Zm12.75-8.08c.67-.02,1.38-.08,2.13-.18,.75-.09,1.48-.23,2.21-.42s1.42-.44,2.08-.76c.66-.31,1.23-.71,1.73-1.18,.5-.47,.89-1.04,1.17-1.69,.28-.65,.4-1.41,.37-2.26-.03-.85-.21-1.59-.54-2.21s-.76-1.14-1.29-1.57c-.53-.43-1.14-.78-1.82-1.05-.68-.27-1.4-.47-2.13-.61-.74-.14-1.48-.23-2.22-.27s-1.44-.05-2.1-.03c-.66,.02-1.36,.08-2.11,.17-.75,.09-1.48,.23-2.21,.42s-1.42,.44-2.09,.76c-.66,.32-1.25,.71-1.75,1.17-.5,.47-.89,1.02-1.18,1.66-.29,.64-.41,1.39-.38,2.24,.03,.78,.21,1.46,.55,2.06,.34,.59,.79,1.11,1.35,1.55,.55,.44,1.18,.8,1.88,1.09s1.42,.52,2.16,.69c.74,.17,1.47,.29,2.2,.35,.73,.07,1.39,.09,1.99,.07Z"/><path class="cls-2" d="M304.38,207.92l-7.08-4.27c.6-.18,1.27-.41,2.02-.7,.75-.29,1.45-.64,2.1-1.06,.65-.42,1.2-.92,1.64-1.5,.44-.58,.66-1.26,.66-2.02,0-.7-.18-1.31-.54-1.83s-.83-.95-1.4-1.31c-.58-.36-1.23-.66-1.95-.89-.73-.23-1.46-.41-2.2-.54s-1.45-.21-2.13-.26c-.68-.04-1.27-.07-1.76-.07h-13v-7.61h25.94v2.92l-6.04,3.08c.97,.42,1.87,.9,2.68,1.44,.82,.54,1.52,1.16,2.11,1.86,.59,.7,1.05,1.5,1.38,2.39,.33,.89,.49,1.9,.49,3.02,0,.58-.05,1.24-.15,1.95-.1,.72-.26,1.42-.49,2.11-.23,.69-.54,1.33-.91,1.91-.37,.58-.83,1.04-1.37,1.37Z"/><path class="cls-2" d="M280.73,222.01v-7.61h22.93v-4.72h3.01v4.72h9.55v7.61h-9.55v7.86h-3.01v-7.86h-22.93Z"/></g></svg>