<?xml version="1.0" encoding="UTF-8"?><svg id="Layer_1" xmlns="http://www.w3.org/2000/svg" width="109.17" height="109.17" viewBox="0 0 109.17 109.17"><defs><style>.cls-1{fill:#83a99d;}</style></defs><g id="Instagram"><path class="cls-1" d="M75.4,109.59H33.77C14.92,109.59-.41,94.25-.41,75.4V33.77C-.41,14.92,14.92-.41,33.77-.41h41.63c18.85,0,34.19,15.34,34.19,34.19v41.63c0,18.85-15.34,34.19-34.19,34.19ZM33.77,8.83c-13.75,0-24.94,11.19-24.94,24.94v41.63c0,13.75,11.19,24.94,24.94,24.94h41.63c13.75,0,24.94-11.19,24.94-24.94V33.77c0-13.75-11.19-24.94-24.94-24.94H33.77Z"/><path class="cls-1" d="M55.09,83.3c-15.56,0-28.21-12.66-28.21-28.21s12.66-28.21,28.21-28.21,28.21,12.66,28.21,28.21-12.66,28.21-28.21,28.21Zm0-46.35c-10,0-18.14,8.14-18.14,18.14s8.14,18.14,18.14,18.14,18.14-8.14,18.14-18.14-8.14-18.14-18.14-18.14Z"/><circle class="cls-1" cx="83.81" cy="25.37" r="6.55"/></g></svg>