<?xml version="1.0" encoding="UTF-8"?><svg id="Layer_1" xmlns="http://www.w3.org/2000/svg" width="86" height="96" viewBox="0 0 86 96"><defs><style>.cls-1{fill:#83a99d;}</style></defs><path id="kurv2" class="cls-1" d="M83.83,86.99l-5.78-57.01c-.31-3.06-2.89-5.39-5.96-5.39h-10.2c.39-3.66,.45-10.67-3.7-15.9-3.26-4.11-8.36-6.22-15.16-6.28-6.74-.08-11.95,1.97-15.42,6.03-4.5,5.27-4.78,12.48-4.57,16.15H13.92c-3.08,0-5.65,2.33-5.96,5.39L2.17,86.99c-.36,3.53,2.41,6.6,5.96,6.6H77.87c3.55,0,6.32-3.07,5.96-6.6ZM30.65,11.03c2.66-3.11,6.85-4.68,12.33-4.61,5.52,.05,9.58,1.64,12.05,4.75,3.42,4.3,3.16,10.55,2.82,13.43H27.04c-.18-2.97-.06-9.28,3.61-13.56Z"/></svg>