<?xml version="1.0" encoding="UTF-8"?><svg id="Layer_1" xmlns="http://www.w3.org/2000/svg" width="86" height="96" viewBox="0 0 86 96"><defs><style>.cls-1{fill:#83a99d;}</style></defs><path id="søg2" class="cls-1" d="M75.84,74.28l-17.68-17.68c2.99-4.34,4.74-9.6,4.74-15.26,0-14.89-12.11-27-27-27S8.9,26.45,8.9,41.34s12.11,27,27,27c6.11,0,11.75-2.04,16.28-5.48l17.54,17.54c1.69,1.69,4.43,1.69,6.12,0,1.69-1.69,1.69-4.43,0-6.12Zm-39.94-11.94c-11.58,0-21-9.42-21-21s9.42-21,21-21,21,9.42,21,21-9.42,21-21,21Z"/></svg>